<svg xmlns="http://www.w3.org/2000/svg" version="1.1" xmlns:xlink="http://www.w3.org/1999/xlink" xmlns:svgjs="http://svgjs.dev/svgjs" width="1000" height="1000" viewBox="0 0 1000 1000"><rect width="1000" height="1000" fill="#ffffff"></rect><g transform="matrix(0.7,0,0,0.7,149.5757576829992,417.9530540157732)"><svg viewBox="0 0 396 93" data-background-color="#444444" preserveAspectRatio="xMidYMid meet" height="234" width="1000" xmlns="http://www.w3.org/2000/svg" xmlns:xlink="http://www.w3.org/1999/xlink"><g id="tight-bounds" transform="matrix(1,0,0,1,0.2400000606681374,0.08343087016538675)"><svg viewBox="0 0 395.52 92.83313825966921" height="92.83313825966921" width="395.52"><g><svg viewBox="0 0 535.1553000365994 125.60716514637035" height="92.83313825966921" width="395.52"><g transform="matrix(1,0,0,1,0,17.359600971748726)"><svg viewBox="0 0 395.52 90.8879632028729" height="90.8879632028729" width="395.52"><g id="textblocktransform"><svg viewBox="0 0 395.52 90.8879632028729" height="90.8879632028729" width="395.52" id="textblock"><g><svg viewBox="0 0 395.52 59.42211359998081" height="59.42211359998081" width="395.52"><g transform="matrix(1,0,0,1,0,0)"><svg width="395.52" viewBox="2.390000104904175 -37.380001068115234 252.7314293384552 37.9697151184082" height="59.42211359998081" data-palette-color="#ffffff"><g transform="matrix(1,0,0,1,0,0)"><g><svg width="15.807616710662842" viewBox="1.7799999713897705 -36.36000061035156 63.470001220703125 36.36000061035156" height="9.0556640625" data-palette-color="#ffffff" id="scriptelement" x="239.3138084729726" y="-37.380001068115234"><path d="M12.91-30.02L1.78-30.02 1.78-36.36 31.64-36.36 31.64-30.02 20.51-30.02 20.51 0 12.91 0 12.91-30.02ZM44.26 0L36.57 0 36.57-36.36 50.92-36.36Q55.04-36.36 57.96-34.9 60.88-33.43 62.42-30.76 63.95-28.09 63.95-24.49L63.95-24.49Q63.95-20.86 62.39-18.26 60.83-15.66 57.87-14.28 54.92-12.89 50.73-12.89L50.73-12.89 41.12-12.89 41.12-19.07 49.48-19.07Q51.68-19.07 53.14-19.67 54.6-20.28 55.32-21.48 56.03-22.69 56.03-24.49L56.03-24.49Q56.03-26.3 55.32-27.54 54.6-28.78 53.13-29.43 51.67-30.08 49.45-30.08L49.45-30.08 44.26-30.08 44.26 0ZM47.92-16.55L56.21-16.55 65.25 0 56.76 0 47.92-16.55Z" opacity="1" transform="matrix(1,0,0,1,0,0)" fill="#ffffff" class="undefined-123" id="p-123"></path></svg></g></g><path d="M24.46-13.94L24.46-16.58 38.89-16.58 38.89-13.94 37.52-13.94Q36.79-13.94 36.41-13.71 36.04-13.48 36.04-12.84L36.04-12.84 36.04-2.29Q34.28-2.29 32.13-1.56L32.13-1.56 29-0.54Q25.51 0.56 21.47 0.56 17.43 0.56 13.83-0.89 10.23-2.34 7.69-4.86 5.15-7.37 3.77-10.77 2.39-14.16 2.39-17.59 2.39-21.02 3.11-23.63 3.83-26.25 5.13-28.39 6.42-30.54 8.22-32.21 10.01-33.89 12.16-35.03L12.16-35.03Q16.58-37.38 21.78-37.38L21.78-37.38Q29.81-37.38 34.52-34.89L34.52-34.89 33.96-28.86 32.35-28.86Q32.35-31.1 29.57-32.69L29.57-32.69Q26.49-34.45 21.66-34.45L21.66-34.45Q15.38-34.45 11.23-29.93L11.23-29.93Q7.18-25.54 7.18-19.26L7.18-19.26Q7.18-12.38 10.99-7.54L10.99-7.54Q15.09-2.37 22.05-2.37L22.05-2.37Q29.71-2.37 31.08-5.66L31.08-5.66Q31.49-6.69 31.49-7.89L31.49-7.89 31.49-12.84Q31.49-13.5 31.12-13.72 30.74-13.94 30.1-13.94L30.1-13.94 24.46-13.94ZM74.22 0L50.58-29.74 50.58-2.64 54.29-2.08 54.29 0 43.99 0 43.99-2.08 47.78-2.64 47.78-34.18 43.99-34.74 43.99-36.82 50.73-36.82 74.39-7.08 74.39-34.18 70.7-34.74 70.7-36.82 80.93-36.82 80.93-34.74 77.24-34.18 77.24 0 74.22 0ZM115.89 0L92.26-29.74 92.26-2.64 95.97-2.08 95.97 0 85.66 0 85.66-2.08 89.45-2.64 89.45-34.18 85.66-34.74 85.66-36.82 92.4-36.82 116.06-7.08 116.06-34.18 112.37-34.74 112.37-36.82 122.6-36.82 122.6-34.74 118.92-34.18 118.92 0 115.89 0ZM145.04-15.09L144.3-17.65 135.32-17.65 135.32-2.93 148.92-2.93 150.68-7.25 152.53-7.25 151.73 0 127.02 0 127.02-2.08 130.73-2.64 130.73-34.18 127.02-34.74 127.02-36.82 150.65-36.82 151.21-29.57 149.06-29.57 147.75-33.86 135.32-33.86 135.32-20.58 144.3-20.58 145.04-23.17 146.77-23.17 146.77-15.09 145.04-15.09ZM162-34.18L172.7-5.86 178.97-26.27 178.73-23.02 174.48-34.18 171.43-34.74 171.43-36.82 182.85-36.82 182.88-34.74 179.31-34.18 188.81-6.03Q190.1-9.5 191.23-13.04L191.23-13.04 195.62-27.2Q196.74-30.71 198.04-34.18L198.04-34.18 194.52-34.74 194.52-36.82 203.9-36.82 203.9-34.74 201.19-34.28 189.37 0 186.73 0 179.02-22.17 180.21-21.9 173.26 0 170.62 0 157.17-34.18 154.38-34.74 154.38-36.82 165.08-36.82 165.25-34.74 162-34.18ZM218.62-2.34L218.62-2.34Q220.42-2.34 221.9-2.7 223.38-3.05 224.45-3.81L224.45-3.81Q226.75-5.4 226.75-8.45L226.75-8.45Q226.75-11.04 225.06-12.7L225.06-12.7Q223.28-14.4 219.29-16.15 215.3-17.9 213.21-19.27 211.12-20.65 209.92-22.07L209.92-22.07Q207.75-24.56 207.75-28.1L207.75-28.1Q207.75-32.2 211.29-34.86L211.29-34.86Q214.59-37.38 219.27-37.38L219.27-37.38Q222.96-37.38 226.65-36.04L226.65-36.04Q228.19-35.42 229.43-34.69L229.43-34.69 228.58-28.17 226.53-28.17Q226.53-31.54 224.69-33.07 222.86-34.59 219.4-34.59L219.4-34.59Q214.61-34.59 212.85-31.47L212.85-31.47Q212.29-30.44 212.29-29.17 212.29-27.91 212.66-26.89 213.02-25.88 214.07-24.9L214.07-24.9Q216.13-22.92 221.79-20.56L221.79-20.56Q229.7-17.19 231.02-12.6L231.02-12.6Q231.41-11.16 231.41-9.53 231.41-7.91 230.86-6.46 230.31-5 229.36-3.87 228.41-2.73 227.15-1.9 225.89-1.07 224.47-0.54L224.47-0.54Q218.2 1.9 211.29-0.93L211.29-0.93Q208.78-1.98 206.85-3.49L206.85-3.49 207.87-10.5 209.95-10.5Q209.95-5.59 213.05-3.66L213.05-3.66Q215.17-2.34 218.62-2.34Z" opacity="1" transform="matrix(1,0,0,1,0,0)" fill="#000000" class="undefined-text-0" data-fill-palette-color="primary" id="text-0"></path></svg></g></svg></g><g transform="matrix(1,0,0,1,126.20348848480313,73.45024849020989)"><svg viewBox="0 0 232.20979200000002 17.437714712663023" height="17.437714712663023" width="232.20979200000002"><g transform="matrix(1,0,0,1,0,0)"><svg width="232.20979200000002" viewBox="-0.7799999713897705 -34.86000061035156 464.2200012207031 34.56999969482422" height="17.437714712663023" data-palette-color="#00d1cd"><path d="M0.39-33.69L13.31-33.69 17.14-21.63Q18.99-26.59 20.61-31.54L20.61-31.54Q20.65-31.74 20.9-32.28 21.14-32.81 21.19-33.15L21.19-33.15Q21.39-33.74 23.83-33.74L23.83-33.74Q24-33.74 24.3-33.72 24.61-33.69 24.8-33.69L24.8-33.69Q28.78-33.74 33.4-33.79L33.4-33.79Q33.98-33.72 34.23-32.59L34.23-32.59 23.14-12.52 23.54-10.89Q23.54-9.47 23.58-6.57 23.63-3.66 23.63-2.54L23.63-2.54 23.63-1.81Q23.54-1.46 23.25-1.25 22.97-1.03 22.47-0.96 21.97-0.9 21.59-0.89 21.22-0.88 20.52-0.9 19.82-0.93 19.58-0.93L19.58-0.93 10.25-0.93 9.47-1.95 9.47-12.16 3.83-24.19 1.22-27.86Q-0.78-31.86-0.78-33.01L-0.78-33.01Q-0.78-33.69 0.39-33.69L0.39-33.69ZM33.84-16.21L33.84-17.68 33.79-18.21Q34.25-22.19 34.67-23.75L34.67-23.75Q35.62-27.42 38.08-29.88L38.08-29.88 38.67-30.47Q39.84-31.84 42.23-32.81L42.23-32.81 43.16-32.81Q45.55-33.81 51.02-34.67L51.02-34.67Q52.39-34.67 53.89-34.46 55.39-34.25 57.22-33.78 59.06-33.3 60.75-32.26 62.45-31.23 63.57-29.79L63.57-29.79 63.57-29.1Q67.58-24.1 67.58-17.87L67.58-17.87Q67.58-10.86 64.35-6.45L64.35-6.45 63.38-5.22Q62.25-3.83 60.58-2.83 58.91-1.83 57.03-1.31 55.15-0.78 53.43-0.56 51.71-0.34 50-0.34L50-0.34Q47.48-0.34 45.2-0.94 42.92-1.54 40.93-2.81 38.94-4.08 37.42-5.93 35.91-7.79 34.97-10.41 34.03-13.04 33.84-16.21L33.84-16.21ZM47.26-18.55L47.26-17.48Q47.26-8.89 50.53-8.89L50.53-8.89Q51.44-8.89 52.11-9.23 52.78-9.57 53.2-10.28 53.61-10.99 53.88-11.72 54.15-12.45 54.26-13.55 54.37-14.65 54.4-15.48 54.44-16.31 54.44-17.48L54.44-17.48 54.44-18.36Q54.44-19.63 54.29-20.8 54.15-21.97 53.79-23.16 53.44-24.34 52.71-25.06 51.98-25.78 50.93-25.78L50.93-25.78Q47.26-25.78 47.26-18.55L47.26-18.55ZM70.89-27.93L70.89-27.88Q70.8-28.37 70.8-30.66L70.8-30.66Q70.8-33.3 71.28-33.79L71.28-33.79 84.57-33.79 84.57-13.28Q84.57-10.11 86.42-10.11L86.42-10.11Q87.2-10.11 87.71-10.8 88.23-11.5 88.23-12.45L88.23-12.45 88.23-16.06Q88.37-26.76 88.37-26.86L88.37-26.86Q88.37-31.1 88.28-33.01L88.28-33.01Q88.28-33.69 88.96-33.98L88.96-33.98 102.53-33.98 102.53-30.18Q102.22-20.92 102.14-18.26L102.14-18.26 102.14-16.75Q102.14-16.46 102.12-15.97 102.09-15.48 102.09-15.28L102.09-15.28Q102.09-14.45 102.14-14.11L102.14-14.11 102.14-12.21Q102.14-8.81 101.46-7.32L101.46-7.32 101.46-7.23Q100.68-5.4 99.21-4.06 97.75-2.73 95.87-1.99 93.99-1.25 92.01-0.92 90.03-0.59 87.84-0.59L87.84-0.59Q87.15-0.59 86.81-0.73L86.81-0.73 86.23-0.73Q86.23-0.49 85.49-0.49L85.49-0.49 85.49-0.44Q84.96-0.42 82.37-0.68L82.37-0.68 81.25-0.68Q79.71-0.85 78.28-1.37 76.85-1.88 75.51-2.82 74.16-3.76 73.15-5.05 72.14-6.35 71.5-8.2 70.87-10.06 70.8-12.26L70.8-12.26Q70.82-13.53 70.81-15.77 70.8-18.02 70.82-19.86 70.84-21.7 70.94-23.44L70.94-23.44 70.94-24.12Q70.94-24.24 70.97-24.51 70.99-24.78 70.99-24.9L70.99-24.9Q70.99-25.27 70.94-26 70.89-26.73 70.89-27.1L70.89-27.1 70.89-27.93ZM106.49-0.98L106.49-33.59 111.03-33.59Q113.13-33.59 117.74-33.69 122.36-33.79 124.65-33.79L124.65-33.79Q126.63-33.79 128.35-33.57 130.07-33.35 131.74-32.76 133.42-32.18 134.6-31.27 135.78-30.37 136.52-28.89 137.25-27.42 137.25-25.49L137.25-25.49Q137.25-22.83 136-20.95 134.76-19.07 132.17-17.77L132.17-17.77Q133.2-17.33 133.95-16.63 134.71-15.92 135.11-15.41 135.51-14.89 135.89-13.68 136.27-12.48 136.35-12.1 136.42-11.72 136.66-10.23L136.66-10.23Q136.74-9.89 136.76-9.72L136.76-9.72Q136.86-8.74 137.59-6.14 138.32-3.54 138.32-2.15L138.32-2.15Q138.32-1.27 137.79-1.27L137.79-1.27Q136.32-1.27 133.35-1.25 130.39-1.22 128.95-1.22L128.95-1.22Q128.36-1.27 127.19-1.27L127.19-1.27 125.53-1.27Q125.04-1.42 124.58-2.78 124.11-4.15 123.92-5.86L123.92-5.86 123.38-10.21Q123.23-10.74 123.15-10.97 123.06-11.21 122.84-11.54 122.62-11.87 122.25-11.99 121.87-12.11 121.28-12.11L121.28-12.11 120.16-12.11 120.16-2.34Q120.16-2.27 120.16-2.11 120.16-1.95 120.16-1.89 120.16-1.83 120.16-1.71 120.16-1.59 120.13-1.53 120.11-1.46 120.09-1.37 120.06-1.27 120.02-1.23 119.99-1.2 119.93-1.14 119.87-1.07 119.78-1.05 119.69-1.03 119.58-1 119.47-0.98 119.33-0.98L119.33-0.98 106.49-0.98ZM120.31-20.7L120.31-20.7Q120.35-20.65 120.45-20.5 120.55-20.34 120.65-20.24 120.74-20.14 120.84-20.12L120.84-20.12Q121.57-20.12 122.31-20.28 123.04-20.43 123.81-20.8 124.58-21.17 125.05-21.92 125.53-22.68 125.53-23.73L125.53-23.73Q125.53-26.27 120.65-26.27L120.65-26.27Q120.16-26.15 120.16-25.88L120.16-25.88 120.16-24.95Q120.16-24.24 120.23-22.83 120.31-21.41 120.31-20.7ZM162.93-33.89L169.18-33.89Q172.52-33.89 175.2-33.45 177.87-33.01 180.32-31.88 182.78-30.76 184.41-28.96 186.05-27.15 187.01-24.27 187.98-21.39 187.98-17.58L187.98-17.58Q187.98-14.79 187.32-12.39 186.66-9.99 185.51-8.25 184.36-6.52 182.89-5.16 181.41-3.81 179.68-2.95 177.94-2.1 176.21-1.64 174.47-1.17 172.74-1.07L172.74-1.07 155.99-1.07 155.99-33.5Q156.07-33.5 156.26-33.47 156.46-33.45 156.53-33.45L156.53-33.45Q157.58-33.45 159.72-33.67 161.85-33.89 162.93-33.89L162.93-33.89ZM168.3-8.69L169.47-8.69Q170.72-8.69 171.67-9.09 172.62-9.5 173.19-10.25 173.77-11.01 174.15-11.84 174.52-12.67 174.69-13.79 174.87-14.92 174.93-15.76 174.99-16.6 174.99-17.68L174.99-17.68 174.99-19.43Q174.96-19.6 174.84-21.09 174.72-22.58 174.3-23.63L174.3-23.63Q173.91-24.39 173.44-24.94 172.96-25.49 172.5-25.79 172.03-26.1 171.41-26.26 170.79-26.42 170.28-26.46 169.76-26.51 169.03-26.51L169.03-26.51 169.03-25.98 168.3-25.98 168.3-8.69ZM210.04-6.05L202.52-6.05Q202.35-5.49 202.19-4.58 202.04-3.66 201.9-3.14 201.77-2.61 201.45-2.04 201.13-1.46 200.49-1.2 199.84-0.93 198.81-0.93L198.81-0.93 188.27-0.93 188.27-1.76Q189.56-5.64 192.04-13.67 194.52-21.7 195.88-25.83L195.88-25.83 195.88-25.78Q196.71-28.15 198.32-33.2L198.32-33.2Q198.35-33.25 198.4-33.33L198.4-33.33Q198.62-33.69 198.81-33.89L198.81-33.89 212-33.79Q215.37-33.79 215.71-33.2L215.71-33.2 215.71-32.57Q215.76-32.35 216.24-31.45L216.24-31.45Q218.61-24.19 219.71-20.9L219.71-20.9 219.71-20.61Q219.81-19.9 220.15-18.99 220.49-18.09 220.97-17.05 221.44-16.02 221.64-15.43L221.64-15.43 222.62-11.91Q223.47-9.08 225.13-4.35L225.13-4.35 225.13-4.39 225.13-3.91Q225.2-3.56 225.5-2.98 225.79-2.39 225.86-2.15L225.86-2.15Q225.86-1.46 225.58-1.27 225.3-1.07 224.5-1.07L224.5-1.07 213.17-1.07Q212.75-1.12 212.63-1.15 212.51-1.17 212.25-1.25 212-1.32 211.89-1.44 211.78-1.56 211.75-1.76L211.75-1.76 210.82-5.47Q210.73-5.93 210.63-5.99 210.53-6.05 210.04-6.05L210.04-6.05ZM203.7-14.65L203.7-14.75 203.7-14.65ZM209.07-17.68L209.07-17.68Q208.92-18.36 208.64-19.89 208.36-21.41 208.09-22.55 207.82-23.68 207.5-24.66L207.5-24.66 207.5-25.83Q207.31-26.34 206.82-26.56L206.82-26.56 206.82-26.51Q206.24-26.39 205.65-23.24L205.65-23.24 205.65-22.07Q205.6-21.9 205.43-21.75 205.26-21.61 205.26-21.58L205.26-21.58Q204.45-18.02 203.94-15.82L203.94-15.82Q203.94-15.58 203.82-14.97 203.7-14.36 203.7-14.26L203.7-14.26 209.75-14.26Q209.75-14.89 209.31-16.55L209.31-16.55 209.31-17.09Q209.29-17.16 209.18-17.37 209.07-17.58 209.07-17.68ZM240.36-0.93L226.98-0.93 226.98-33.01Q227.01-33.2 227.38-33.36 227.74-33.52 227.81-33.59L227.81-33.59 240.95-33.59 240.95-1.81Q240.83-1.29 240.72-1.11 240.61-0.93 240.36-0.93L240.36-0.93ZM268.39-0.98L245.98-0.98Q245.9-1.07 245.74-1.2 245.59-1.32 245.39-1.66L245.39-1.66 245.39-12.21Q245.39-14.28 245.56-18.58 245.73-22.88 245.73-25.1L245.73-25.1Q245.73-25.59 245.63-27.17 245.54-28.76 245.54-29.69L245.54-29.69Q245.54-33.13 246.37-33.89L246.37-33.89Q251.44-33.79 253.94-33.79L253.94-33.79 256.28-33.79Q257.11-33.79 257.55-33.74L257.55-33.74Q257.6-33.79 257.79-33.79L257.79-33.79Q257.84-33.79 258.22-33.74 258.6-33.69 258.82-33.69L258.82-33.69Q259.43-33.62 259.84-32.67L259.84-32.67 259.84-32.32Q259.84-32.06 259.82-31.54 259.79-31.03 259.79-30.76L259.79-30.76 259.79-29.69Q259.77-29.57 259.49-29.26 259.21-28.96 259.21-28.76L259.21-28.76 259.21-10.94 269.56-10.94Q269.95-10.94 270.15-10.91 270.34-10.89 270.54-10.69 270.73-10.5 270.73-10.11L270.73-10.11 270.73-1.95Q270.54-0.98 268.39-0.98L268.39-0.98ZM271.27-33.69L284.18-33.69 288.01-21.63Q289.87-26.59 291.48-31.54L291.48-31.54Q291.53-31.74 291.77-32.28 292.02-32.81 292.07-33.15L292.07-33.15Q292.26-33.74 294.7-33.74L294.7-33.74Q294.87-33.74 295.18-33.72 295.49-33.69 295.68-33.69L295.68-33.69Q299.66-33.74 304.27-33.79L304.27-33.79Q304.86-33.72 305.1-32.59L305.1-32.59 294.02-12.52 294.41-10.89Q294.41-9.47 294.46-6.57 294.51-3.66 294.51-2.54L294.51-2.54 294.51-1.81Q294.41-1.46 294.13-1.25 293.85-1.03 293.35-0.96 292.85-0.9 292.47-0.89 292.09-0.88 291.4-0.9 290.7-0.93 290.46-0.93L290.46-0.93 281.13-0.93 280.35-1.95 280.35-12.16 274.71-24.19 272.1-27.86Q270.09-31.86 270.09-33.01L270.09-33.01Q270.09-33.69 271.27-33.69L271.27-33.69ZM345.48-33.59L353.83-33.59Q354.12-33.5 354.28-32.75 354.44-32.01 354.46-30.88 354.49-29.76 354.46-28.74 354.44-27.71 354.4-26.64 354.37-25.56 354.37-25.29L354.37-25.29Q354.32-24.32 354.32-22.56L354.32-22.56 354.32-19.97Q354.32-18.26 354.37-15.28 354.42-12.3 354.42-10.89L354.42-10.89 354.42-2Q354.32-1.17 353.05-1.17L353.05-1.17 339.38-1.17Q338.94-1.27 338.25-3.22L338.25-3.22Q337.79-4.52 336.7-7.47 335.62-10.42 334.84-12.66 334.05-14.89 333.42-16.99L333.42-16.99 333.42-17.14 333.42-16.99Q333.35-15.38 333.27-12.19 333.2-9.01 333.13-7.42L333.13-7.42 333.13-2.44Q333.13-1.71 332.96-1.43 332.79-1.15 332.05-0.98L332.05-0.98 321.99-0.98 320.92-2.05Q321.04-6.1 321.12-14.75 321.19-23.39 321.31-27.54L321.31-27.54 321.31-32.81Q321.55-33.69 321.9-33.69L321.9-33.69 321.9-33.59Q323.56-33.59 327.11-33.69 330.66-33.79 332.44-33.79L332.44-33.79 336.54-33.79Q336.57-33.79 336.62-33.76L336.62-33.76Q337.06-33.59 337.11-33.37L337.11-33.37 337.13-33.2Q338.01-30.83 338.91-28.3 339.82-25.76 341.06-22.16 342.31-18.55 342.79-17.19L342.79-17.19 342.79-20.8Q343.28-29.39 343.28-33.01L343.28-33.01Q343.28-33.4 343.82-33.5 344.36-33.59 345.48-33.59L345.48-33.59ZM359.1-1.81L359.1-31.54Q359.1-33.01 359.22-33.25L359.22-33.25Q359.44-33.59 359.93-33.59L359.93-33.59 360.52-33.59Q360.91-33.59 361.05-33.54L361.05-33.54 362.32-33.54Q364.79-33.54 369.78-33.67 374.77-33.79 377.26-33.79L377.26-33.79 383.76-33.79Q384.39-33.72 384.39-33.15L384.39-33.15 384.39-25Q384.37-24.85 384.31-24.74 384.25-24.63 384.21-24.6 384.17-24.56 383.98-24.43 383.78-24.29 383.71-24.22L383.71-24.22 372.38-24.22 372.38-21.19 373.46-21.19Q374.87-21.19 377.78-21.29 380.68-21.39 382.25-21.39L382.25-21.39Q382.93-21.39 383.17-21.12 383.42-20.85 383.42-20.36L383.42-20.36Q383.42-20.24 383.37-19.95 383.32-19.65 383.32-19.53L383.32-19.53 383.32-18.6Q383.32-18.51 383.34-18.2 383.37-17.9 383.37-17.68L383.37-17.68 383.37-16.99Q383.37-16.46 383.42-15.92 383.47-15.38 383.47-14.99L383.47-14.99 383.47-14.36Q383.34-14.06 383.27-13.96 383.2-13.87 383.03-13.87L383.03-13.87 383.03-13.92Q382.12-13.92 379.91-13.79 377.7-13.67 376.39-13.67L376.39-13.67 372.48-13.67 372.48-10.55Q372.68-10.55 373.07-10.52 373.46-10.5 373.65-10.5L373.65-10.5Q374.75-10.5 376.9-10.57 379.05-10.64 380-10.64L380-10.64 383.12-10.64Q384.39-10.64 384.74-10.35L384.74-10.35Q384.86-10.21 384.93-10.06L384.93-10.06 384.93-2.25Q384.93-1.73 384.74-1.46 384.54-1.2 384-1.17L384-1.17 359.83-1.17 359.1-1.81ZM397.4-32.71L399.19-17.21Q399.63-18.99 400-21.24 400.38-23.49 400.63-25.24 400.87-27 401.2-29.55 401.53-32.1 401.75-33.59L401.75-33.59 415.81-33.59Q415.89-33.01 415.97-32.34 416.06-31.67 416.13-31.05 416.2-30.44 416.29-29.76 416.37-29.08 416.45-28.45 416.52-27.83 416.59-27.15 416.67-26.46 416.75-25.85 416.84-25.24 416.92-24.58 417.01-23.93 417.08-23.34L417.08-23.34 418.13-16.43 420.11-33.23Q420.16-33.37 420.29-33.47 420.43-33.57 420.67-33.63 420.91-33.69 421.13-33.73 421.35-33.76 421.73-33.78 422.11-33.79 422.33-33.79 422.55-33.79 422.97-33.79 423.38-33.79 423.53-33.79L423.53-33.79Q424.31-33.79 425.77-33.74 427.24-33.69 428.02-33.69L428.02-33.69Q428.12-33.69 428.53-33.72 428.95-33.74 429.19-33.74L429.19-33.74Q430.12-33.74 430.27-33.59L430.27-33.59Q430.39-33.59 430.69-33.62 431-33.64 431.14-33.64L431.14-33.64Q431.36-33.64 431.52-33.62 431.68-33.59 431.85-33.51 432.02-33.42 432.16-33.3 432.29-33.18 432.4-32.96 432.51-32.74 432.56-32.42L432.56-32.42 425.46-1.27 411.17-1.27 408.46-16.94 406.78-4Q406.75-3.86 406.64-3.2 406.53-2.54 406.47-2.29 406.41-2.05 406.27-1.64 406.12-1.22 405.9-1.05 405.68-0.88 405.36-0.88L405.36-0.88Q404.46-0.88 402.68-0.95 400.9-1.03 399.99-1.03L399.99-1.03Q398.43-1.03 395.89-0.95 393.35-0.88 392.18-0.88L392.18-0.88 391.4-0.88 384.9-31.23 385.05-32.96Q385.05-33.01 385.05-33.15 385.05-33.3 385.05-33.34 385.05-33.37 385.07-33.48 385.1-33.59 385.15-33.64 385.2-33.69 385.29-33.76 385.39-33.84 385.54-33.89L385.54-33.89Q386.22-33.79 386.56-33.79L386.56-33.79 388.18-33.79Q388.66-33.79 388.66-33.89L388.66-33.89 389.49-33.89Q389.59-33.89 389.85-33.91 390.1-33.94 390.32-33.94L390.32-33.94 391.01-33.94Q391.28-33.94 391.79-33.96 392.3-33.98 392.57-33.98L392.57-33.98 394.18-33.98 394.18-33.89 395.79-33.89Q396.57-33.89 396.98-33.65 397.38-33.42 397.4-32.71L397.4-32.71ZM453.14-24.12L453.14-24.12Q452.48-24.12 452.06-24.32 451.65-24.51 451.41-24.8 451.16-25.1 450.86-25.39 450.55-25.68 449.89-25.88 449.23-26.07 448.21-26.07L448.21-26.07Q447.89-26.07 447.44-26.01 446.99-25.95 446.45-25.68 445.91-25.42 445.91-25L445.91-25Q445.91-24.54 446.36-24.21 446.82-23.88 447.39-23.74 447.96-23.61 448.68-23.43 449.4-23.24 449.7-23.1L449.7-23.1 453.29-22.22Q454.87-21.78 456.14-21.29 457.41-20.8 458.84-19.96 460.27-19.12 461.22-18.09 462.17-17.07 462.81-15.52 463.44-13.96 463.44-12.11L463.44-12.11Q463.44-9.86 462.86-8.11L462.86-8.11 462.86-8.15Q462.34-6.59 461.42-5.36 460.49-4.13 459.22-3.31 457.95-2.49 456.65-1.94 455.36-1.39 453.66-1.06 451.97-0.73 450.64-0.57 449.31-0.42 447.57-0.29L447.57-0.29Q439.88-0.68 437.27-2.73L437.27-2.73 437.27-3.03Q435.05-4.69 433.99-6.64 432.92-8.59 432.73-11.04L432.73-11.04Q432.73-11.62 433.27-11.62L433.27-11.62Q433.41-11.62 433.71-11.6 434-11.57 434.14-11.57L434.14-11.57 436.63-11.57Q436.98-11.62 437.61-11.62L437.61-11.62 438.25-11.62Q438.44-11.62 438.59-11.57L438.59-11.57Q440-11.62 443.42-11.62L443.42-11.62 444.55-11.62Q445.03-11.62 445.3-11.33 445.57-11.04 445.73-10.61 445.89-10.18 446.1-9.75 446.3-9.33 446.84-9.03 447.38-8.74 448.26-8.74L448.26-8.74Q449.21-8.74 449.98-9.24 450.75-9.74 450.75-10.69L450.75-10.69Q450.75-11.13 450.33-11.52 449.92-11.91 449.09-12.23 448.26-12.55 447.61-12.74 446.96-12.94 445.86-13.21 444.76-13.48 444.45-13.57L444.45-13.57 442.98-13.57Q437.68-15.14 435.35-17.54 433.02-19.95 433.02-23.63L433.02-23.63Q433.02-26.07 433.94-28.03 434.85-29.98 436.35-31.23 437.86-32.47 439.88-33.31 441.91-34.16 444.01-34.51 446.11-34.86 448.35-34.86L448.35-34.86Q452.33-34.86 455.74-33.53 459.14-32.2 460.9-30.08L460.9-30.08Q461.54-29.44 461.93-28.47 462.32-27.49 462.43-26.92 462.54-26.34 462.71-25L462.71-25 462.03-24.02 457.88-24.02Q457.19-24.02 455.6-24.07 454.02-24.12 453.14-24.12Z" opacity="1" transform="matrix(1,0,0,1,0,0)" fill="#000000" class="undefined-text-1" data-fill-palette-color="secondary" id="text-1"></path></svg></g></svg></g></svg></g></svg></g><g transform="matrix(1,0,0,1,409.54813489022905,0)"><svg viewBox="0 0 125.60716514637035 125.60716514637035" height="125.60716514637035" width="125.60716514637035"><g data-palette-color="#00d1cd"><rect width="34.3326251400079" height="125.60716514637035" fill="#000000" stroke="transparent" data-fill-palette-color="accent" x="0" fill-opacity="1"></rect><rect width="34.3326251400079" height="125.60716514637035" fill="#000000" stroke="transparent" data-fill-palette-color="accent" x="41.869055048790116" fill-opacity="0.75"></rect><rect width="34.3326251400079" height="125.60716514637035" fill="#000000" stroke="transparent" data-fill-palette-color="accent" x="83.73811009758023" fill-opacity="0.5"></rect></g></svg></g></svg></g><defs></defs></svg><rect width="395.52" height="92.83313825966921" fill="none" stroke="none" visibility="hidden"></rect></g></svg></g></svg>